<?xml version="1.0" standalone="no"?><!DOCTYPE svg PUBLIC "-//W3C//DTD SVG 1.1//EN" "http://www.w3.org/Graphics/SVG/1.1/DTD/svg11.dtd"><svg t="1737523883578" class="icon" viewBox="0 0 1034 1024" version="1.1" xmlns="http://www.w3.org/2000/svg" p-id="20195" xmlns:xlink="http://www.w3.org/1999/xlink" width="807.8125" height="800"><path d="M862.416 268.988c31.208 243.088 40.472 489.236 27.496 735.452l-753.236-95.156c60.4-278.024 85.548-563.6 74.644-850l391.664-49.48a9364.132 9364.132 0 0 1 259.432 259.184z" fill="#85CC85" p-id="20196"></path><path d="M633.78 280.572a8872.792 8872.792 0 0 1 255.3 277.268 4072.256 4072.256 0 0 0-26.664-288.852l-228.636 11.584z" opacity=".12" p-id="20197"></path><path d="M602.988 9.808a3829.14 3829.14 0 0 1 30.796 270.764l228.636-11.584A9369.348 9369.348 0 0 0 602.988 9.808z" fill="#A8EDA8" p-id="20198"></path><path d="M721.584 625.12l-369.864-14.332a3551.136 3551.136 0 0 0 6.38-96.548l361.544 4.308a3895 3895 0 0 1 1.94 106.572z" fill="#FFFFFF" p-id="20199"></path><path d="M577.468 768.692l-97.872-7.54A3683.388 3683.388 0 0 0 492.4 370.504l89.556-2.48a3775.924 3775.924 0 0 1-4.488 400.668z" fill="#FFFFFF" p-id="20200"></path></svg>