<?xml version="1.0" standalone="no"?><!DOCTYPE svg PUBLIC "-//W3C//DTD SVG 1.1//EN" "http://www.w3.org/Graphics/SVG/1.1/DTD/svg11.dtd"><svg t="1737526743708" class="icon" viewBox="0 0 1025 1024" version="1.1" xmlns="http://www.w3.org/2000/svg" p-id="44540" xmlns:xlink="http://www.w3.org/1999/xlink" width="800.78125" height="800"><path d="M25.215484 867.033609C10.156237 640.465065 22.998829 416.389228 69.98121 194.464123c13.901478-51.745305 64.64558-99.481678 110.338345-104.603058 175.857403-18.619081 351.714806-22.875224 527.57221-12.768429 45.705126 2.78524 91.743986 50.385647 100.742453 104.364088a2282.512246 2282.512246 0 0 1-9.101472 107.120487" fill="#F2C84B" p-id="44541"></path><path d="M49.98599 801.856526A48623.789163 48623.789163 0 0 1 157.794546 171.119199a2690.974253 2690.974253 0 0 0 801.341504-18.672643 72801.88717 72801.88717 0 0 0-126.703689 637.947637C572.061883 833.742577 308.251057 837.504299 49.98599 801.856526z" fill="#FFFFFF" p-id="44542"></path><path d="M592.423799 283.991454c111.520836 0.997083 223.041673 4.375628 334.562509 10.127395 54.283335 3.156056 94.450942 47.20487 85.184663 98.319789-28.017205 150.229901-78.736586 308.032688-138.297868 470.693163-20.46492 55.544109-88.175912 105.859713-149.088612 108.953966-204.224823 10.267482-408.449647 5.006015-612.674469-15.788519-60.92506-6.608764-98.492836-54.468743-80.969723-105.649584 50.274402-147.988525 113.560324-303.051394 177.921612-461.410404 22.77634-55.11149 74.348598-101.953785 114.520326-103.045632 40.526063-1.034164 73.685249-1.516225 73.685249-1.520345" fill="#FFE287" p-id="44543"></path></svg>