<?xml version="1.0" standalone="no"?><!DOCTYPE svg PUBLIC "-//W3C//DTD SVG 1.1//EN" "http://www.w3.org/Graphics/SVG/1.1/DTD/svg11.dtd"><svg t="1737591362970" class="icon" viewBox="0 0 1024 1024" version="1.1" xmlns="http://www.w3.org/2000/svg" p-id="7299" xmlns:xlink="http://www.w3.org/1999/xlink" width="800" height="800"><path d="M943.052629 245.077333a293.546667 293.546667 0 0 0-341.333333-238.933333C443.340629 34.133333 308.855296 157.013333 336.844629 318.122667a519.168 519.168 0 0 0 42.666667 128.341333L89.719296 864.597333A95.573333 95.573333 0 0 0 75.383296 926.378667l12.288 71.68c-11.946667-68.266667 3.413333 24.917333 12.629333 24.576h95.573334a86.016 86.016 0 0 0 51.541333-34.133334l114.688-179.2 100.352 8.192 133.802667-210.261333a496.298667 496.298667 0 0 0 144.384 0c159.061333-28.330667 228.693333-198.997333 200.362666-360.106667z m-774.826666 648.533334l-24.576 15.701333 5.802666-28.330667 273.066667-389.461333 18.773333 13.312zM801.740629 327.68c-44.032 63.146667-88.746667 18.432-151.552-25.941333s-119.466667-71.338667-75.434666-134.826667a136.533333 136.533333 0 0 1 192.853333-34.133333 141.312 141.312 0 0 1 34.133333 194.901333z" fill="#F77724" p-id="7300"></path></svg>