<?xml version="1.0" standalone="no"?><!DOCTYPE svg PUBLIC "-//W3C//DTD SVG 1.1//EN" "http://www.w3.org/Graphics/SVG/1.1/DTD/svg11.dtd"><svg t="1737523901183" class="icon" viewBox="0 0 1024 1024" version="1.1" xmlns="http://www.w3.org/2000/svg" p-id="22507" xmlns:xlink="http://www.w3.org/1999/xlink" width="800" height="800"><path d="M304.44 496.21c-8.95 0-16.21-7.26-16.21-16.21 0-33.33 6.84-65.55 20.33-95.75 3.64-8.18 13.24-11.84 21.41-8.19 8.18 3.65 11.84 13.24 8.19 21.41-11.62 26.02-17.51 53.79-17.51 82.54-0.01 8.95-7.26 16.2-16.21 16.2z" fill="#FFFFFF" p-id="22508"></path><path d="M149.76 602.74l13.48-178.71 711.64-0.53v437.8c0 37.78-30.63 68.41-68.41 68.41h-567.9c-37.78 0-84.69-18.45-84.69-56.23l-4.12-50.76v-97.77" fill="#77CAF7" p-id="22509"></path><path d="M149.72 609.66l17.6-184.56 711.64-0.53v437.8c0 37.78-30.63 68.41-68.41 68.41H242.64c-37.78 0-84.69-18.45-84.69-56.23l-8.2-51.83v-97.77" fill="#77CAF7" opacity=".5" p-id="22510"></path><path d="M871.7 430.43L564.48 107.5c-30.07-30.61-78.81-28.21-108.88 2.4L141.61 431.65" fill="#77CAF7" p-id="22511"></path><path d="M871.7 430.43L564.48 107.5c-29.75-34.34-70.49-37.39-108.88 2.4L141.61 431.65" fill="#77CAF7" opacity=".5" p-id="22512"></path><path d="M871.7 446.73c-4.3 0-8.6-1.69-11.81-5.06L552.67 118.73c-13.62-13.84-26.58-20.83-39.42-21.16-14.17-0.5-29.71 7.68-46.21 23.93L162.2 435.58c-6.28 6.47-16.58 6.61-23.04 0.35-6.46-6.27-6.61-16.59-0.35-23.04L443.9 98.55c23.31-22.96 46.72-34.27 70.18-33.56 21.39 0.55 42.26 11 62.01 31.07L883.51 419.2c6.2 6.52 5.94 16.84-0.57 23.04-3.17 3-7.21 4.49-11.24 4.49z" fill="#5E125C" p-id="22513"></path><path d="M234.45 932.74h567.9c30.82 0 56.86-19.14 65.42-47.16L548.98 593.97l-48.88-7.84-57.03 32.74-282.06 287.62c16.18 18.35 47.02 26.25 73.44 26.25z" fill="#77CAF7" p-id="22514"></path><path d="M802.36 953.08H218.13c-46.7 0-84.7-38-84.7-84.7v-86.39c0-9 7.3-16.29 16.29-16.29s16.29 7.3 16.29 16.29v86.39c0 28.74 23.38 52.11 52.11 52.11h584.23c29.7 0 48.08-29.61 48.08-57.03v-415.7l-684.38-7.78-0.04 169.68c0 9-7.3 16.29-16.29 16.29-9.01 0-16.29-7.3-16.29-16.29l0.04-202.64 749.56 8.51v447.93c0 49.42-36.19 89.62-80.67 89.62z" fill="#5E125C" p-id="22515"></path><path d="M255.97 530.11l148.22 140.46 8.82-0.8L461.66 622c29.22-29.22 76.39-27.52 105.61 1.69l31.62 30.52 29.84-2.38 132.39-103V217.26c0-18.56-17.75-34.08-36.31-34.08H263.07c-15.1 0-7.1 14.93-7.1 33.2v313.73z" fill="#F8F9FB" p-id="22516"></path><path d="M769.25 529.42c-9 0-16.29-7.3-16.29-16.29V210.29c0-6.69-11.71-10.82-11.83-10.82H256.39c-0.39 8.15-0.43 9.9-0.43 16.91v288.6c0 9-7.3 16.29-16.29 16.29s-16.29-7.3-16.29-16.29v-288.6c0-13.6-0.29-49.5 32.76-49.5h484.99c25.16 0 44.42 20.97 44.42 43.41v302.83c0 9-7.3 16.3-16.3 16.3z" fill="#5E125C" p-id="22517"></path><path d="M679.34 403.15H337.15c-9 0-16.29-7.3-16.29-16.29 0-9 7.3-16.29 16.29-16.29h342.19c9 0 16.29 7.3 16.29 16.29 0.01 9-7.29 16.29-16.29 16.29zM606.02 500.92H337.15c-9 0-16.29-7.3-16.29-16.29 0-9 7.3-16.29 16.29-16.29h268.86c9 0 16.29 7.3 16.29 16.29 0.01 9-7.29 16.29-16.28 16.29zM524.54 305.38H337.15c-9 0-16.29-7.3-16.29-16.29 0-9 7.3-16.29 16.29-16.29h187.39c9 0 16.29 7.3 16.29 16.29 0.01 9-7.29 16.29-16.29 16.29z" fill="#D0DDEA" p-id="22518"></path><path d="M149.82 598.74v-32.55" fill="#E6EDEC" p-id="22519"></path><path d="M149.82 615.03c-9 0-16.29-7.3-16.29-16.29v-32.55c0-9 7.3-16.29 16.29-16.29s16.29 7.3 16.29 16.29v32.55c0.01 9-7.29 16.29-16.29 16.29zM159.26 916.06c-4.24 0-8.48-1.65-11.67-4.93-6.28-6.45-6.14-16.76 0.3-23.04l302-294.06c34.9-34.91 92.71-34.16 128.7 1.85L812.8 819.07c6.52 6.21 6.76 16.53 0.56 23.04-6.22 6.52-16.52 6.76-23.04 0.56L555.82 619.2c-23.57-23.58-60.69-24.33-83.04-1.97L170.63 911.44a16.268 16.268 0 0 1-11.37 4.62z" fill="#5E125C" p-id="22520"></path><path d="M412.93 669.76L461.62 622c29.22-29.22 76.41-27.52 105.63 1.69l31.63 30.52 29.7-2.38 238.17-203.89-57.03-18.32L614.25 582.4h-1.91l-45.28-33.73c-41.16-34.86-66.28-33.84-105.81-2.54l-46.48 36.27h-8.5L206.94 421.47l-40.59 10.18v33.28l237.84 205.63 8.74-0.8z" fill="#D0DDEA" p-id="22521"></path><path d="M406.26 667.26c-3.73 0-7.48-1.27-10.55-3.88L147.35 452.21c-6.85-5.82-7.69-16.11-1.85-22.97 5.82-6.86 16.1-7.69 22.97-1.85l248.36 211.17c6.85 5.82 7.69 16.11 1.85 22.97-3.22 3.78-7.8 5.73-12.42 5.73zM614.26 667.26c-4.65 0-9.28-1.98-12.5-5.83-5.78-6.9-4.87-17.17 2.03-22.95L860.3 423.55c6.88-5.78 17.17-4.87 22.95 2.03 5.78 6.9 4.87 17.17-2.03 22.95L624.71 663.46c-3.04 2.55-6.76 3.8-10.45 3.8zM150.05 741.25c-9 0-16.29-7.3-16.29-16.29v-57.03c0-9 7.3-16.29 16.29-16.29s16.29 7.3 16.29 16.29v57.03c0.01 8.99-7.29 16.29-16.29 16.29z" fill="#5E125C" p-id="22522"></path></svg>