<?xml version="1.0" standalone="no"?><!DOCTYPE svg PUBLIC "-//W3C//DTD SVG 1.1//EN" "http://www.w3.org/Graphics/SVG/1.1/DTD/svg11.dtd"><svg t="1728548739235" class="icon" viewBox="0 0 1024 1024" version="1.1" xmlns="http://www.w3.org/2000/svg" p-id="9983" xmlns:xlink="http://www.w3.org/1999/xlink" width="200" height="200"><path d="M512 136q8.992 0 12.992 8.992l104.992 222.016q3.008 7.008 11.008 8.992l235.008 35.008q8.992 2.016 12 10.496t-4 14.496l-171.008 176q-4.992 4.992-4 12l40.992 247.008q0.992 7.008-3.488 12t-11.488 4.992q-4 0-7.008-2.016l-208.992-115.008q-3.008-2.016-7.008-2.016t-7.008 2.016L296 885.984q-3.008 2.016-7.008 2.016-7.008 0-11.488-4.992t-3.488-12L315.008 624q0.992-7.008-4-12l-171.008-176q-7.008-6.016-4-14.496t12-9.504l235.008-36q8-0.992 11.008-8.992l104.992-222.016q4-8.992 12.992-8.992zM512 64q-24 0-44.992 12.992-22.016 12.992-32.992 36.992l-92 195.008-204.992 31.008q-24 4-42.496 19.488t-26.496 39.008-2.496 47.008 22.496 41.504l151.008 154.016-36 218.016q-6.016 40 20 70.496t66.016 30.496q22.016 0 42.016-11.008l180.992-100 180.992 100q20 11.008 42.016 11.008 40 0 66.016-30.496t20-70.496l-36-218.016 151.008-154.016q16.992-18.016 22.496-41.504t-2.496-47.008-26.496-39.008-42.496-19.488l-204.992-31.008-92-195.008q-11.008-24-32.992-36.992Q536.128 64 512.128 64z" p-id="9984" fill="#1296db"></path></svg>