<?xml version="1.0" standalone="no"?><!DOCTYPE svg PUBLIC "-//W3C//DTD SVG 1.1//EN" "http://www.w3.org/Graphics/SVG/1.1/DTD/svg11.dtd"><svg t="1737534165420" class="icon" viewBox="0 0 1024 1024" version="1.1" xmlns="http://www.w3.org/2000/svg" p-id="51991" xmlns:xlink="http://www.w3.org/1999/xlink" width="800" height="800"><path d="M0 0h1024v1024H0V0z" fill="#202425" opacity=".01" p-id="51992"></path><path d="M307.2 853.333333a68.266667 68.266667 0 0 1 68.266667-68.266666h273.066666a68.266667 68.266667 0 0 1 68.266667 68.266666v68.266667a68.266667 68.266667 0 0 1-68.266667 68.266667h-273.066666a68.266667 68.266667 0 0 1-68.266667-68.266667v-68.266667z" fill="#FFAA44" p-id="51993"></path><path d="M512 34.133333c-129.706667 0-238.250667 90.4192-266.1376 211.626667-3.652267 15.9744-16.7936 28.330667-32.8704 31.470933A221.866667 221.866667 0 0 0 256 716.8H375.466667a34.133333 34.133333 0 0 0 34.133333-34.133333v-153.6a17.066667 17.066667 0 0 0-17.066667-17.066667H314.2656a17.066667 17.066667 0 0 1-12.049067-29.149867l161.518934-161.518933a68.266667 68.266667 0 0 1 96.529066 0l161.518934 161.518933a17.066667 17.066667 0 0 1-12.049067 29.149867H631.466667a17.066667 17.066667 0 0 0-17.066667 17.066667V682.666667a34.133333 34.133333 0 0 0 34.133333 34.133333h119.466667a221.866667 221.866667 0 0 0 43.008-439.569067 42.052267 42.052267 0 0 1-32.8704-31.470933A273.169067 273.169067 0 0 0 512 34.133333z" fill="#FF7744" p-id="51994"></path></svg>