<?xml version="1.0" standalone="no"?><!DOCTYPE svg PUBLIC "-//W3C//DTD SVG 1.1//EN" "http://www.w3.org/Graphics/SVG/1.1/DTD/svg11.dtd"> <svg t="1731033036395" class="icon" viewBox="0 0 1024 1024" version="1.1" xmlns="http://www.w3.org/2000/svg" p-id="9798" xmlns:xlink="http://www.w3.org/1999/xlink" width="800" height="800">
    <!-- 定义渐变 -->
    <defs>
      <linearGradient id="grad1" x1="0%" y1="100%" x2="100%" y2="0%">
        <stop offset="0%" style="stop-color:rgba(240, 248, 255, 1); stop-opacity:1" /> <!-- 接近白色的浅蓝色起始 -->
        <stop offset="50%" style="stop-color:rgba(166, 197, 246, 1); stop-opacity:1" /> <!-- 中间过渡色 -->
        <stop offset="100%" style="stop-color:#4E8CEE; stop-opacity:1" /> <!-- 深蓝色终止 -->
      </linearGradient>
    </defs>
    <!-- 使用渐变填充路径 -->
    <path d="M626.688 196.096c8.704 25.088 33.792 104.448 33.792 139.264 0 118.272-43.52 231.936-119.296 310.784-7.168 7.68-20.992 17.408-34.816 26.112l-0.512-0.512c-24.064 16.384-50.176 28.672-77.824 36.864l26.112 77.312H372.736l-9.728 36.864c-1.024 4.096 0 8.192 3.072 11.264 20.992 22.528 24.576 55.808 9.728 82.432l-38.912 69.12c-7.68 13.824-25.6 18.944-39.424 11.264s-18.944-25.6-11.264-39.424l38.912-69.12c2.56-4.608 2.048-10.24-1.536-14.336-16.384-17.408-22.528-42.496-16.384-65.536l5.632-22.016H243.712l26.112-77.312c-64.512-19.456-122.368-62.976-164.352-122.88-22.016-31.744-38.912-67.072-50.688-103.936-12.288-39.424-18.432-80.384-18.432-121.344C36.352 162.304 176.64 1.024 348.672 1.024c61.44 0 120.32 20.48 171.52 59.392 45.568 34.304 81.92 80.896 106.496 135.68z" fill="url(#grad1)" p-id="9799"></path>
    <path d="M664.576 193.024c18.432-4.608 37.888-7.168 56.832-7.168 146.432 0 265.216 136.192 266.24 304.128v2.048c0 72.704-22.528 142.848-63.488 198.144-38.4 52.224-91.136 88.064-148.48 101.888l12.288 36.352H752.64l-3.072 12.288c16.896 18.432 19.968 45.568 7.68 67.584l-27.136 48.128c-7.68 13.824-25.6 18.944-39.424 11.264s-18.944-25.6-11.264-39.424l27.136-48.128c-12.8-13.824-17.92-33.28-13.824-51.712h-40.448l12.288-36.864c-32.256-8.192-62.976-23.04-89.088-43.008-17.92-13.824-34.304-29.696-48.64-47.104 44.032-19.968 132.608-147.456 152.064-251.392 7.168-38.912 17.92-113.664 8.192-176.128-5.632-38.912-16.384-65.024-22.528-80.896z" fill="url(#grad1)" p-id="9800"></path>
    <path d="M749.056 672.768c3.584 0 7.168-0.512 10.752-2.048 41.472-16.384 73.216-51.712 84.48-95.232 2.048-7.68 1.024-15.36-3.072-22.016-8.192-13.824-26.112-18.432-39.936-10.24-6.656 4.096-11.264 10.24-13.312 17.408-6.656 25.6-25.088 46.08-49.664 55.808-14.848 6.144-22.016 23.04-15.872 37.888 4.096 10.752 14.848 17.92 26.624 18.432zM192 370.688c13.824 0 25.6-9.728 28.672-23.552C234.496 279.04 280.064 221.696 343.04 192.512c14.336-6.656 20.992-24.064 14.336-38.912-6.656-14.336-24.064-20.992-38.912-14.336C239.104 176.64 181.76 249.344 163.84 335.36c-1.536 7.68 0 15.36 4.096 22.016 5.12 8.704 14.336 13.312 24.064 13.312z" fill="#FFFFFF" p-id="9801"></path>
  </svg>