<?xml version="1.0" standalone="no"?><!DOCTYPE svg PUBLIC "-//W3C//DTD SVG 1.1//EN" "http://www.w3.org/Graphics/SVG/1.1/DTD/svg11.dtd"><svg t="1766977291773" class="icon" viewBox="0 0 1024 1024" version="1.1" xmlns="http://www.w3.org/2000/svg" p-id="13100" xmlns:xlink="http://www.w3.org/1999/xlink" width="800" height="800"><path d="M804.5568 634.88V389.12c0-36.864-23.3984-61.44-58.5216-61.44H278.016c-35.1232 0-58.5216 24.576-58.5216 61.44v245.76c0 36.864 23.3984 61.44 58.5216 61.44h468.0704c35.1232 0 58.5216-24.576 58.5216-61.44z m87.808 0c-17.5616 0-29.2864 12.288-29.2864 30.72v61.44c0 18.432-11.6736 30.72-29.2352 30.72h-58.5216c-17.5616 0-29.2864 12.288-29.2864 30.72s11.7248 30.72 29.2864 30.72h58.5216C880.64 819.2 921.6 776.192 921.6 727.04V665.6c0-18.432-11.7248-30.72-29.2352-30.72zM833.8432 204.8h-58.5216c-17.5616 0-29.2864 12.288-29.2864 30.72s11.7248 30.72 29.2864 30.72h58.5216c17.5616 0 29.2352 12.288 29.2352 30.72V358.4c0 18.432 11.7248 30.72 29.2864 30.72 17.5104 0 29.2352-12.288 29.2352-30.72V296.96c0-49.152-40.96-92.16-87.7568-92.16zM131.584 389.12c17.5616 0 29.2864-12.288 29.2864-30.72V296.96c0-18.432 11.6736-30.72 29.2352-30.72h58.5216c17.5616 0 29.2864-12.288 29.2864-30.72S266.24 204.8 248.6784 204.8H190.1568C143.36 204.8 102.4 247.808 102.4 296.96V358.4c0 18.432 11.7248 30.72 29.2352 30.72z m117.0432 368.64H190.1568c-17.5616 0-29.2352-12.288-29.2352-30.72V665.6c0-18.432-11.7248-30.72-29.2864-30.72-17.5104 0-29.2352 12.288-29.2352 30.72v61.44c0 49.152 40.96 92.16 87.7568 92.16h58.5216c17.5616 0 29.2864-12.288 29.2864-30.72s-11.7248-30.72-29.2864-30.72z" fill="#1296db" p-id="13101"></path></svg>