<?xml version="1.0" standalone="no"?><!DOCTYPE svg PUBLIC "-//W3C//DTD SVG 1.1//EN" "http://www.w3.org/Graphics/SVG/1.1/DTD/svg11.dtd"><svg t="1766381220514" class="icon" viewBox="0 0 1024 1024" version="1.1" xmlns="http://www.w3.org/2000/svg" p-id="7971" xmlns:xlink="http://www.w3.org/1999/xlink" width="800" height="800"><path d="M388.835842 291.14301c-0.002-0.682995-0.082999-1.609989-0.276998-2.752981-0.759995-4.503969-3.007979-10.935925-6.683954-19.10787l-0.753995-1.657988c-6.245957-13.579907-14.107904-27.915809-29.924796-55.115624l-15.716892-26.952815c-9.403936-16.199889-14.484901-25.257827-19.451867-34.743763l-2.009987-3.878973-0.940993-1.842988c-8.941939-17.62388-13.501908-29.888796-13.501908-38.569736 0-38.210739 33.092774-71.299513 68.900529-71.299513 8.557941 0 17.124883 3.145978 26.504819 9.009939l0.806994 0.507996c6.191958 3.953973 11.425922 8.009945 20.839858 15.927891l5.991959 5.061966 2.682982 2.244984c18.539873 15.421895 27.402813 20.686859 36.074753 20.59786 3.836974-0.04 8.579941-3.845974 14.905898-12.714914l0.782995-1.110992 0.349997-0.510996c3.519976-5.203964 14.191903-22.595846 15.975891-25.545826l1.49599-2.385984c8.513942-13.336909 15.852892-22.715845 24.456833-30.279793C531.170869 5.619962 544.366779 0 559.470675 0c15.114897 0 28.389806 5.609962 40.333725 15.986891 8.70994 7.564948 16.198889 16.993884 24.76983 30.233793l1.715989 2.677982 1.620989 2.574982c0.557996 0.889994 1.137992 1.824988 1.759988 2.832981l4.585968 7.471949 2.769981 4.472969 0.915994 1.45599c2.529983 4.002973 4.551969 7.018952 6.512956 9.682934l0.377997 0.509996 0.744995 0.983994c5.155965 6.699954 9.089938 9.619934 12.096917 9.687934 8.126944 0.187999 15.693893-5.458963 32.026781-22.697845l4.531969-4.790968 1.776988-1.857987c5.89596-6.134958 9.584934-9.631934 13.855905-13.019911l1.066993-0.833994c8.513942-6.573955 16.755885-10.150931 25.539826-10.150931 33.835769 0 61.45458 32.467778 61.454579 71.297513 0 8.212944-3.692975 19.703865-11.006924 36.385751l-0.811995 1.839988-1.091992 2.441983c-2.85498 6.326957-6.202958 13.387908-10.383929 21.95585l-2.242985 4.576968-12.794913 25.880824-3.584975 7.31595-2.288984 4.716967c-11.161924 23.116842-18.143876 39.265732-22.431847 52.65364l-0.408997 1.289992-0.498997 1.643988c-2.336984 7.835946-3.425977 14.066904-3.256978 18.473874 0.128999 3.401977 0.756995 4.630968 1.682989 5.071965 50.222657 23.936836 96.662339 58.036603 136.538067 99.669319 80.344451 83.888427 128.589121 192.545684 128.589121 292.501 0 197.268651-189.194707 341.055669-434.465031 341.055669-245.271323 0-434.46503-143.787017-434.46503-341.055669 0-99.955317 48.24367-208.612574 128.589121-292.501 39.044733-40.764721 84.379423-74.306492 133.399089-98.156329l1.839987-0.889994 0.002-0.245998z m170.634833-273.61813c-19.112869 0-33.029774 11.901919-50.021658 38.537737l-0.959993 1.523989c-0.674995 1.153992-12.883912 21.080856-16.776885 26.788817l-0.734995 1.055993-0.948994 1.328991c-9.147937 12.640914-17.61988 19.222869-28.469805 19.335868-8.952939 0.089999-17.911878-3.285978-27.79981-9.639934l-1.273991-0.828995c-5.735961-3.774974-10.744927-7.717947-20.054863-15.562893l-5.220965-4.41497-2.707981-2.269985c-17.835878-14.854898-26.901816-20.370861-35.404758-20.624859l-0.619996-0.009c-26.129821 0-51.377649 25.242827-51.377649 53.772633 0 5.107965 4.138972 16.01989 12.141917 31.696783l0.827995 1.609989 2.207985 4.232971c4.811967 9.122938 9.987932 18.298875 19.514866 34.689763l14.138904 24.237834c16.02989 27.549812 24.131835 42.268711 30.66379 56.342615l0.884994 1.927987c4.45997 9.807933 7.27295 17.772879 8.360943 24.212835 1.627989 9.634934-0.427997 17.429881-8.166944 21.117855-48.26567 23.001843-92.984364 55.839618-131.422102 95.970344-77.359471 80.772448-123.719154 185.184734-123.719154 280.378083 0 92.17437 43.519703 173.692813 121.223171 232.746409 76.514477 58.149602 181.546759 90.784379 295.715978 90.78438s219.200502-32.635777 295.715979-90.78338c77.702469-59.054596 121.224171-140.573039 121.224171-232.746409 0-95.194349-46.359683-199.606636-123.722154-280.378083-38.437737-40.132726-83.155432-72.968501-131.422102-95.971344-7.587948-3.615975-11.299923-10.886926-11.65592-20.226862-0.269998-7.067952 1.314991-15.647893 4.539969-25.994822l0.435997-1.38499c5.042966-15.761892 13.261909-34.389765 26.821817-62.102576l2.94998-6.009959 11.887918-24.034835 0.744995-1.51099 3.456977-7.083952 1.634988-3.387977a658.453499 658.453499 0 0 0 7.30795-15.649893l1.062993-2.388983 0.706995-1.611989c6.132958-14.081904 9.241937-23.775837 9.241937-28.679804 0-29.723797-20.45786-53.773632-43.929699-53.773633-7.952946 0-15.371895 5.514962-31.109788 22.07285l-4.628968 4.894966c-7.929946 8.347943-12.081917 12.319916-17.447881 16.427888l-0.665995 0.503996c-8.424942 6.302957-16.627886 9.649934-25.349827 9.447936-9.985932-0.230998-17.989877-6.338957-26.459819-17.681879l-0.825995-1.119993c-2.371984-3.254978-4.757967-6.861953-7.774946-11.68192l-1.401991-2.252984-7.039952-11.441922-1.499989-2.400984-0.480997-0.759995-1.165992-1.830987-1.061993-1.641989c-16.918884-25.962823-31.070788-37.755742-50.088658-37.755742z" fill="#91000A" p-id="7972"></path><path d="M559.455676 1015.22906c235.108393 0 425.70309-136.08707 425.70309-332.292729 0-98.727325-48.25567-205.106598-126.156138-286.441041-38.248739-39.932727-83.641428-73.829495-133.979084-97.818332-32.536778-15.505894 64.127562-157.583923 64.127561-192.157686 0-34.573764-24.290834-62.536573-52.691639-62.536573s-50.511655 54.006631-78.99946 53.349636c-28.488805-0.655996-43.073706-88.569395-98.00433-88.569395-54.928625 0-68.169534 88.263397-98.00333 88.570395-29.833796 0.306998-63.051569-53.349635-92.991365-53.349636-29.764797 0-60.138589 27.961809-60.138589 62.534573 0 34.574764 110.607244 180.225768 85.567415 192.158686-50.337656 23.989836-95.732346 57.885604-133.979084 97.819332C182.007256 477.830734 133.752586 584.208006 133.752586 682.935331c0 196.205659 190.593697 332.292728 425.70209 332.292729z" fill="#D8000F" p-id="7973"></path><path d="M368.474981 43.982699c5.549962 0 11.214923 1.844987 16.947884 4.847967-19.781865-1.40999-34.133767 14.471901-34.133766 39.609729 0 34.572764 116.656203 175.334801 91.616373 187.26772-50.337656 23.988836-95.731346 57.884604-133.979084 97.818332-77.902467 81.334444-126.157138 187.713717-126.157137 286.438042 0 196.206659 190.593697 332.293728 425.70209 332.293728 72.859502 0 141.446033-13.069911 201.405623-36.946747-70.26452 38.349738-156.808928 59.91759-250.406289 59.91759-235.108393 0-425.70209-136.08707-425.702089-332.292729 0-98.727325 48.25467-205.106598 126.156137-286.441041 38.247739-39.932727 83.639428-73.829495 133.978084-97.818332 25.039829-11.932918-85.565415-157.583923-85.565415-192.157686 0-34.573764 30.372792-62.536573 60.137589-62.536573zM607.229349 36.769749c20.114862 25.796824 32.475778 60.153589 50.244657 60.563586 28.486805 0.656996 50.599654-53.349635 78.99946-53.349636 9.835933 0 19.178869 3.352977 27.189814 9.173938-3.937973-0.669995-8.275943-0.988993-13.019911-0.988994-30.265793 0-68.067535 119.575183-104.513286 119.575183-27.334813 0-20.42686-89.23939-38.437737-133.859085zM559.469676 8.76294c7.38395 0 14.037904 1.587989 20.094862 4.33997a9.413936 9.413936 0 0 0-0.381997-0.007c-54.930624 0-74.169493 141.491033-99.102323 138.023057-17.882878-2.486983-30.414792-38.250739-47.544675-66.153548 9.839933 7.228951 19.552866 12.463915 28.929802 12.367916 29.834796-0.306998 43.073706-88.570395 98.004331-88.570395z" fill="#C40714" p-id="7974"></path><path d="M833.602802 528.668386c25.979822 0 47.044678 21.063856 47.044678 47.045678 0 25.980822-21.062856 47.044678-47.044678 47.044679s-47.045678-21.062856-47.045679-47.044679 21.063856-47.045678 47.045679-47.045678z m0 17.52488c-16.303889 0-29.519798 13.21691-29.519799 29.520798 0 16.302889 13.21591 29.519798 29.519799 29.519799 16.302889 0 29.519798-13.21691 29.519798-29.519799 0-16.303889-13.21691-29.519798-29.519798-29.519798z" fill="#91000A" p-id="7975"></path><path d="M373.600946 297.784964l-2.92998-3.256977 19.536867-17.58588 2.92998 3.256978c48.614668 54.005631 102.266301 75.697483 162.28489 65.896549l2.772981-0.467997c29.499798-4.829967 57.675606 3.691975 86.35941 25.386827l1.558989 1.192992 1.349991 1.051992c17.303882 13.551907 33.303772 30.086794 56.784612 58.419601l2.642982 3.199978 4.541969 5.545962 4.512969 5.563962 14.476901 17.977877c16.09789 19.948864 25.387826 30.969788 35.06276 41.527716l1.989987 2.159986 2.062985 2.210985c15.143896 16.12789 28.778803 28.057808 42.082713 36.752748l3.666975 2.397984-14.381902 22.00385-3.665975-2.395984c-15.183896-9.923932-30.324793-23.147842-46.893679-40.795721l-2.261985-2.423984-2.442983-2.654981c-8.104945-8.864939-15.966891-18.070876-26.964816-31.537785l-2.365984-2.89998-5.552962-6.854953-11.574921-14.377902-5.454962-6.755954-4.263971-5.238964c-26.447819-32.341779-42.578709-49.175664-59.96759-62.493573l-0.831995-0.633995c-23.016843-17.403881-44.181698-23.966836-66.164547-20.395861l-2.876981 0.484997c-69.101528 11.281923-131.549101-13.745906-186.022728-74.261493z m9.466935-2.625982c51.836646 56.037617 110.369246 78.812461 175.121803 68.240534l2.885981-0.484997c24.533832-3.999973 48.053672 3.285978 72.884501 22.060849l0.852994 0.648996c18.229875 13.961905 34.916761 31.426785 62.254575 64.915556l3.473976 4.270971 5.461963 6.767954 11.570921 14.371901 5.539962 6.837954 4.594968 5.624961c10.788926 13.14691 18.496874 22.069849 26.802817 31.033788l2.246985 2.409984c14.772899 15.730892 28.291807 27.77281 41.639715 36.987747l4.793967-7.33695c-12.775913-8.84894-25.806824-20.48686-40.051726-35.654756l-2.085986-2.236985-2.023986-2.194985-1.929986-2.117986c-8.683941-9.582934-17.402881-19.937864-31.194787-36.983747l-16.774886-20.821857-4.491969-5.536963-4.519969-5.521962-3.456976-4.179971c-22.672845-27.291813-38.10574-43.189705-54.653627-56.144616l-1.866987-1.445991c-27.195814-20.826858-53.284636-28.854803-80.51045-24.395833l-2.786981 0.467997c-61.881577 10.117931-117.487197-11.67092-167.263856-65.444553l-6.512956 5.86296z" fill="#91000A" p-id="7976"></path><path d="M376.857924 294.853984c53.450635 59.379594 114.419218 83.909426 182.058755 72.867502l2.051986-0.346997c23.871837-4.142972 46.480682 3.047979 70.338519 21.088855l0.841995 0.639996c19.309868 14.787899 36.872748 33.779769 64.982555 68.460532l5.459963 6.761954 11.578921 14.384902 5.546962 6.841953c13.621907 16.746886 22.582846 27.221814 32.727776 38.104739 16.405888 17.60288 31.674783 31.156787 47.191678 41.299718l9.588934-14.6699c-13.853905-9.054938-27.77981-21.340854-42.880707-37.423744l-2.073986-2.219985-1.065992-1.154992c-10.454929-11.346922-20.144862-22.883844-36.189753-42.769707l-14.479901-17.981878-4.504969-5.551962-4.528969-5.529962c-24.86883-30.214793-41.746715-47.953672-60.695585-62.465573-27.467812-21.033856-54.759626-30.009795-83.903427-25.238827l-0.929993 0.157999c-62.212575 10.796926-117.952194-11.281923-168.088851-66.979542l-13.026911 11.724919z" fill="#FFE400" p-id="7977"></path><path d="M723.330555 278.050099l-0.005-5.377963 5.799961 1.41499 0.359997 0.096c0.434997 0.120999 0.835994 0.246998 1.244992 0.391997l0.466997 0.171999c0.159999 0.06 0.329998 0.126999 0.519996 0.202998l2.444983 1.001994c2.205985 0.942994 4.039972 1.999986 5.639962 3.302977 3.701975 3.011979 5.84896 7.068952 5.84896 11.834919 0 4.582969-2.009986 8.546942-5.483963 11.528921-1.690988 1.45199-3.653975 2.606982-6.054958 3.629976-3.199978 1.362991-7.33695 2.538983-12.669914 3.636975l-1.42599 0.285998c-9.209937 1.803988-21.862851 3.409977-37.501744 4.772967l-1.45999 0.125999c-29.491798 2.512983-67.669537 4.035972-108.554258 4.327971l-6.256957 0.034999-4.146971 0.015-6.239958 0.001-4.259971-0.008c-43.229704-0.134999-83.950426-1.638989-115.244212-4.242971l-3.000979-0.255998-2.484983-0.218998-3.769975-0.352998c-12.768913-1.232992-23.273841-2.639982-31.235786-4.198971l-1.42499-0.285998c-5.331964-1.097992-9.469935-2.273984-12.669914-3.635976-2.399984-1.022993-4.36297-2.179985-6.055958-3.630975-3.473976-2.98198-5.483963-6.945953-5.483963-11.528921 0-4.501969 1.948987-8.419942 5.321964-11.387922 1.657989-1.45899 3.584975-2.620982 5.939959-3.650975l1.109993-0.478997c0.786995-0.329998 1.265991-0.506997 1.706988-0.636995l0.281998-0.077 3.959973-1.283991 2.821981 7.672947 8.640941 2.94698c7.579948 1.543989 18.569873 2.99698 32.244779 4.258971l3.379977 0.301998 2.86598 0.245998 3.03798 0.245999c31.712783 2.516983 72.970501 3.916973 116.396204 3.916973l4.107972-0.004 4.256971-0.013c38.957734-0.159999 75.755482-1.45199 104.951282-3.659975l3.153979-0.244998 2.96498-0.240999 3.991972-0.343997 3.494976-0.319998c12.220916-1.149992 22.224848-2.455983 29.479799-3.839974l1.259991-0.246998 2.879981-0.786995c1.231992-0.341998 2.301984-0.648996 3.209978-0.919993l1.076992-0.327998c0.048-0.562996 0.113999-1.138992 0.195999-1.742988l0.086999-0.613996 0.283998-1.807988z m8.102945 6.278957l0.005 0.295998 0.023 0.611996c-0.003 1.299991-0.520996 2.271984-1.245992 3.032979a4.819967 4.819967 0 0 1-0.971993 0.788995 7.565948 7.565948 0 0 1-1.112992 0.559996c-0.411997 0.172999-0.919994 0.359998-1.53299 0.565996l-0.791995 0.257999-1.116992 0.347997c-1.207992 0.364998-2.686982 0.789995-4.44597 1.274991l-2.506982 0.681996-0.267999 0.063999-1.34899 0.265999c-8.506942 1.630989-20.44586 3.127979-35.12976 4.409969l-2.89198 0.243999-2.98998 0.243998-3.178978 0.246998c-29.428799 2.225985-66.433546 3.523976-105.592278 3.685975l-4.279971 0.015-6.226958 0.001-4.27997-0.008c-41.296718-0.131999-80.309451-1.52199-110.720243-3.935973l-3.06398-0.248998-2.88298-0.245999-2.401983-0.213998c-13.865905-1.255991-25.145828-2.712981-33.221773-4.291971l-1.55399-0.313998-13.11691-4.473969-1.219992-3.315977a11.405922 11.405922 0 0 0-2.030986 1.40499c-1.562989 1.374991-2.346984 2.95198-2.346984 4.809967 0 1.893987 0.808994 3.487976 2.428984 4.878967 0.948994 0.814994 2.153985 1.52399 3.781974 2.217985 2.306984 0.980993 5.443963 1.906987 9.508935 2.79798l1.47499 0.313998 1.37999 0.277998c7.879946 1.539989 18.542873 2.95398 31.609784 4.187972l2.475983 0.229998 2.469983 0.218999 2.97498 0.253998c30.546791 2.539983 70.25952 4.029972 112.512231 4.202971l6.249957 0.016 6.221958-0.003 4.132971-0.013 6.224958-0.034c40.669722-0.291998 78.626463-1.805988 107.871262-4.29797l3.789975-0.332998c15.051897-1.361991 27.089815-2.95298 35.575756-4.701968l0.749995-0.157999c4.43897-0.941994 7.813947-1.919987 10.25493-2.958979 1.628989-0.693995 2.831981-1.40199 3.782974-2.217985 1.619989-1.38999 2.426983-2.98498 2.426984-4.879967 0-1.979986-0.862994-3.610975-2.616982-5.037965-0.761995-0.619996-1.681989-1.182992-2.837981-1.722989z" fill="#91000A" p-id="7978"></path><path d="M680.617847 293.121996l-2.87698 0.243999-2.97998 0.241998c-30.603791 2.431983-70.325519 3.846974-112.709229 3.932973l-4.112972 0.004c-45.31669 0-87.849399-1.51799-119.802181-4.179971l-2.87498-0.242999c-15.602893-1.360991-28.025808-2.96498-36.403752-4.690968l-10.879925-3.711974-2.088986-5.677962c-0.397997 0.129999-0.307998 0-2.643982 1.022993-1.872987 0.819994-3.458976 1.743988-4.803967 2.92698-2.298984 2.022986-3.832974 4.726968-3.832974 8.099945 0 3.438976 1.589989 6.170958 3.956973 8.203944 1.372991 1.179992 2.99398 2.102986 4.917967 2.92398 2.93998 1.252991 6.859953 2.350984 11.837919 3.375977l1.40199 0.281998c8.579941 1.679989 20.258862 3.186978 34.538764 4.483969l2.477983 0.218999c32.319779 2.817981 75.733482 4.44197 122.119165 4.489969l6.234958-0.004 4.136971-0.013c43.350704-0.174999 83.754427-1.731988 114.452218-4.34797l1.45599-0.124999c16.220889-1.41399 29.2568-3.095979 38.419737-4.984966 4.976966-1.024993 8.894939-2.122985 11.835919-3.375977 1.926987-0.819994 3.544976-1.743988 4.919967-2.92398 2.365984-2.032986 3.956973-4.764967 3.956973-8.204944 0-3.591975-1.712988-6.384956-4.234971-8.435942-1.44199-1.172992-3.145978-2.095986-5.187965-2.91998-2.023986-0.817994-2.587982-1.107992-4.141972-1.48599 0 0.669995-0.808994 4.037972-0.627995 6.929953 0.02 0.341998-3.471976 1.45499-10.479929 3.339977-8.369943 1.692988-20.637859 3.265978-35.980754 4.603968zM567.767619 438.836l215.496527 215.498527c6.271957 6.271957 6.271957 16.443888 0 22.715845l-215.498527 215.498527c-6.271957 6.271957-16.443888 6.271957-22.716845 0l-215.498527-215.498527c-6.271957-6.271957-6.271957-16.443888 0-22.717845l215.498527-215.496527c6.272957-6.272957 16.444888-6.272957 22.718845 0z m75.533483 227.673444h-103.459292v89.847386h17.50088v-7.195951H625.799222v7.195951h17.50188v-89.847386zM507.169033 575.106069l-17.308882 4.860966c3.305977 7.195951 6.222957 14.5859 8.946939 22.169849h-25.671824v17.697879h42.784707c-8.167944 19.642866-23.725838 39.866727-46.869679 60.869584l5.639961 19.449867a381.84939 381.84939 0 0 0 20.031863-19.254869v75.262486h17.890878v-78.179466a172.078824 172.078824 0 0 1 15.169896 15.947891l9.918932-15.169896a175.646799 175.646799 0 0 0-24.89283-19.641866c9.917932-13.613907 17.112883-27.419813 21.779852-41.422717v-15.557893h-18.473874a229.989428 229.989428 0 0 0-8.945939-27.031815z m75.650483 139.827044v18.280875h-25.476826V714.935113h25.476826z m42.979706 0v18.280875h-25.476826V714.935113H625.799222z m-42.979706-33.060774v17.696879h-25.476826v-17.696879h25.476826z m42.979706 0v17.696879h-25.476826v-17.696879H625.799222z m8.75094-71.954508h-85.569415v45.31169h85.569415v-45.31369z m-17.308881 14.5849v16.13989H566.289629v-16.13989h50.953652z m28.200807-41.229718H538.476819v16.335888H645.439088v-16.334888z" fill="#FFE400" p-id="7979"></path><path d="M564.063644 436.068019l-0.081999 0.046c-1.299991 0.714995-2.518983 1.619989-3.619976 2.721981l-215.496526 215.498527c-6.273957 6.271957-6.273957 16.443888 0 22.715845l215.496526 215.498527a16.10989 16.10989 0 0 0 3.701975 2.765981c-6.089958 3.304977-13.864905 2.381984-19.01487-2.767981l-215.498527-215.496527c-6.271957-6.271957-6.271957-16.443888 0-22.717845l215.498527-215.496527c5.149965-5.149965 12.924912-6.072958 19.01487-2.767981z" fill="#FFA700" p-id="7980"></path><path d="M795.320063 575.714064a38.282738 38.282738 0 1 0 76.565477 0 38.282738 38.282738 0 1 0-76.565477 0z" fill="#FFE400" p-id="7981"></path><path d="M807.002983 561.110164c0 21.141855 17.139883 38.281738 38.282739 38.281739a38.117739 38.117739 0 0 0 23.159841-7.796947c-6.032959 13.21691-19.364868 22.402847-34.842761 22.402847-21.143855 0-38.282738-17.140883-38.282739-38.283739 0-12.439915 5.931959-23.493839 15.121897-30.485791a38.133739 38.133739 0 0 0-3.439977 15.881891z" fill="#FFA700" p-id="7982"></path><path d="M328.486254 383.31138c69.863522-54.407628 143.906016-69.399526 220.716492-44.536696l2.327984 0.764995c0.469997 0.157999 1.42999 0.506997 2.90998 1.056993l17.54888 6.618954-14.141903 3.241978c-11.575921 2.654982-43.107705 4.780967-57.849605 3.441977l-0.821994-0.079-0.357998-0.022a34.573764 34.573764 0 0 0-2.197985-0.002l-2.633982 0.073c-1.39499 0.033-2.179985 0.036-2.93298 0l-1.899987-0.118999c-49.75966-2.94298-97.93833 13.863905-145.065008 50.729653l-3.146979 2.475983c-43.294704 33.912768-92.558367 59.730592-145.729003 77.242472l-2.101986 0.686995c-29.524798 9.583934-64.059562 17.116883-76.955474 17.414881l-0.762995 0.009a13.14391 13.14391 0 0 1-13.14391-13.14391c0-7.127951 5.676961-12.931912 12.657914-13.13591l0.541996-0.009 0.527996-0.034c2.449983-0.200999 8.864939-1.146992 15.359895-2.328984l2.817981-0.525996 2.773981-0.543997c15.231896-3.052979 31.493785-7.32395 48.067671-12.705913 51.064651-16.573887 98.326328-41.193718 139.689045-73.582497l3.801974-2.987979zM187.700217 468.216799c-16.894885 5.483963-33.484771 9.842933-49.069665 12.963912l-2.82498 0.554996-2.327984 0.436997-1.310991 0.237998c-6.761954 1.214992-13.242909 2.154985-15.984891 2.341984l-0.446997 0.025-0.599996 0.015a4.38097 4.38097 0 0 0 0.256998 8.75394l0.694995-0.01c11.803919-0.289998 45.579688-7.657948 74.319492-16.984884l2.116986-0.693995c52.211643-17.199882 100.554313-42.541709 143.007022-75.793482l3.193979-2.511983c48.726667-38.108739 98.964323-55.62962 150.961968-52.54964l1.839987 0.114999 0.522996 0.013c0.261998 0.001 0.567996 0 0.943994-0.007l3.898973-0.098 0.901994-0.01c0.835994 0 1.48999 0.02 2.105986 0.072l0.896994 0.084999c8.009945 0.729995 21.719852 0.338998 33.895768-0.598995l2.710981-0.218999c-70.698517-19.939864-138.681052-4.635968-203.519608 45.857687l-3.779975 2.971979c-42.196712 33.043774-90.379382 58.145603-142.404026 75.032487z" fill="#91000A" p-id="7983"></path><path d="M115.392711 497.928596c10.079931 0 43.441703-6.523955 76.365478-17.209882 51.26965-16.640886 101.361307-41.869714 146.480999-77.211472l1.710988-1.346991c48.879666-38.671736 99.083323-56.174616 151.018968-52.68564 2.252985 0.151999 6.535955-0.229998 8.79394 0 15.461894 1.576989 46.914679-0.229998 56.644612-2.459983a10.431929 10.431929 0 0 0-1.41199-1.063993c-1.542989-0.929994-3.765974-1.892987-4.852967-2.254984-76.263479-25.466826-149.570978-10.969925-218.964503 43.071705l-2.101986 1.649989c-43.809701 34.661763-92.679366 59.386594-142.729024 75.632483-17.325882 5.623962-33.746769 9.864933-48.559668 12.832912l-2.789981 0.546996-2.312984 0.433997c-8.177944 1.50399-15.109897 2.453983-17.052883 2.534983l-0.239999 0.005a8.76294 8.76294 0 0 0 0 17.52488z" fill="#FFE400" p-id="7984"></path><path d="M745.373405 253.14427a13.14391 13.14391 0 0 1 6.323956 17.47888c-12.086917 25.789824-39.845728 50.091658-83.449429 73.472498-16.769885 8.989939-35.919754 17.863878-57.486607 26.642818a842.058244 842.058244 0 0 1-11.289923 4.501969c-4.708968 1.839987-22.01485 4.861967-35.638756 5.022966l-5.242964 0.021999c-14.474901 0.029-18.879871-0.227998-24.708832-1.41699l-41.688715-8.78894h42.016713c0.964993 0 4.219971-0.840994 6.414956-1.553989l3.503976-1.176992c104.030289-35.15976 165.843866-71.555511 183.251748-106.81227l0.686995-1.42299a13.14391 13.14391 0 0 1 17.305882-5.968959zM563.122651 371.50746c7.27595-0.035 15.016897-0.834994 22.570845-2.146985l1.344991-0.239998c4.313971-0.791995 8.327943-1.725988 9.168937-2.012987l3.815974-1.498989a833.383303 833.383303 0 0 0 7.434949-2.98498c21.292854-8.666941 40.166725-17.413881 56.649613-26.24982 42.094712-22.569846 68.517532-45.704688 79.654456-69.468526a4.38097 4.38097 0 1 0-7.933946-3.717974c-17.177883 36.651749-75.694483 72.627504-173.899811 107.286266l-2.98798 1.049993 4.181972-0.016z" fill="#91000A" p-id="7985"></path><path d="M597.876413 371.160463a879.788986 879.788986 0 0 0 11.233923-4.47997c21.389854-8.70794 40.409724-17.51688 57.06661-26.446819 42.746708-22.918843 69.914522-46.632681 81.552443-71.469511a8.76294 8.76294 0 0 0-15.869892-7.436949c-17.405881 37.142746-80.672449 74.787489-189.538704 111.251239-1.025993 0.344998-5.142965 1.284991-6.979953 1.895987 6.697954 1.41299 10.733927 1.49699 27.80381 1.41299 17.069883-0.082999 33.481771-4.239971 34.731763-4.726967z" fill="#FFE400" p-id="7986"></path><path d="M77.109973 442.121978c25.980822 0 47.044678 21.061856 47.044678 47.043678 0 25.983822-21.061856 47.045678-47.044678 47.045678s-47.045678-21.061856-47.045679-47.045678c0-25.979822 21.063856-47.043678 47.045679-47.043678z m0 17.52488c-16.303889 0-29.519798 13.21691-29.519798 29.517798 0 16.303889 13.21591 29.519798 29.519798 29.519798 16.302889 0 29.519798-13.21591 29.519798-29.519798 0-16.302889-13.21691-29.519798-29.519798-29.519798z" fill="#91000A" p-id="7987"></path><path d="M38.827235 489.166656a38.282738 38.282738 0 1 0 76.566476 0 38.282738 38.282738 0 1 0-76.566476 0z" fill="#D8000F" p-id="7988"></path><path d="M50.510155 474.561756c0 21.143855 17.139883 38.283738 38.283738 38.283738a38.117739 38.117739 0 0 0 23.158842-7.797946c-6.032959 13.21691-19.364868 22.401847-34.842762 22.401846-21.143855 0-38.282738-17.139883-38.282738-38.283738 0-12.437915 5.931959-23.491839 15.121896-30.484792a38.133739 38.133739 0 0 0-3.438976 15.880892z" fill="#C40714" p-id="7989"></path></svg>