<?xml version="1.0" standalone="no"?><!DOCTYPE svg PUBLIC "-//W3C//DTD SVG 1.1//EN" "http://www.w3.org/Graphics/SVG/1.1/DTD/svg11.dtd"><svg t="1733795267384" class="icon" viewBox="0 0 1024 1024" version="1.1" xmlns="http://www.w3.org/2000/svg" p-id="24613" xmlns:xlink="http://www.w3.org/1999/xlink" width="800" height="800"><path d="M256.006497 955.381896C11.386744 813.674859-72.66762 500.626232 68.500608 256.006479s454.216854-328.674117 699.375417-187.50589 328.674117 454.216854 187.50589 699.375417-454.755664 328.674117-699.375418 187.50589z m25.862882-44.721232c220.373302 127.159167 502.170947 51.725763 629.330113-168.647539s51.725763-502.170947-168.647539-629.330113S240.381007 61.496059 113.22184 281.869361 61.496077 783.501497 281.869379 910.660664z" fill="#F4F4F4" p-id="24614"></path><path d="M48.564636 501.165042l404.107522 233.843553L336.289192 937.601165c-18.858351-8.08215-37.716702-17.241921-56.036243-27.479311C129.924951 822.834629 46.409396 663.885671 48.564636 501.165042z" fill="#A6CBFD" p-id="24615"></path><path d="M738.241473 911.199474c-88.903655 53.881003-193.4328 74.894594-296.345516 59.269103l98.602236-177.807309 197.74328 118.538206z" fill="#CEEA98" p-id="24616"></path><path d="M59.340837 395.019467c10.237391-39.871942 26.401691-79.205074 48.492903-116.921777 94.830565-161.643009 274.793115-245.158563 452.600424-226.839022L284.024619 522.717443 59.340837 395.019467zM666.579739 75.50512c26.401691 9.15977 52.803383 21.552401 78.127454 36.100272 220.373302 128.236787 296.345516 412.189672 168.647539 633.640593-21.552401 37.716702-47.954093 71.661734-77.588644 100.757475L377.238754 579.831306 666.579739 75.50512z" fill="#EDEAE1" p-id="24617"></path><path d="M692.442621 707.529283c163.259439-44.182422 245.158563-78.127454 245.158563-100.757475 0-34.483842-109.917246-62.501963-245.158563-62.501964S447.284058 572.287966 447.284058 606.771808c0 22.630021 81.899124 56.575053 245.158563 100.757475z" fill="#DDDDDD" p-id="24618"></path><path d="M699.985961 705.374043C858.396109 536.187694 937.601184 404.718047 937.601184 311.503912c0-142.245848-109.917246-257.551194-245.158563-257.551194S447.284058 169.258065 447.284058 311.503912c0 93.214135 79.205074 224.683782 237.615222 393.870131 3.77167 4.31048 10.237391 4.31048 15.086681 0-0.53881 0.53881-0.53881 0.53881 0 0z" fill="#24C688" p-id="24619"></path><path d="M695.136671 274.86483m-107.762006 0a107.762006 107.762006 0 1 0 215.524011 0 107.762006 107.762006 0 1 0-215.524011 0Z" fill="#FFFFFF" p-id="24620"></path></svg>