<?xml version="1.0" standalone="no"?><!DOCTYPE svg PUBLIC "-//W3C//DTD SVG 1.1//EN" "http://www.w3.org/Graphics/SVG/1.1/DTD/svg11.dtd"><svg t="1731031757120" class="icon" viewBox="0 0 1024 1024" version="1.1" xmlns="http://www.w3.org/2000/svg" p-id="6364" xmlns:xlink="http://www.w3.org/1999/xlink" width="800" height="800">
    <!-- 定义渐变 -->
    <defs>
      <linearGradient id="grad1" x1="0%" y1="100%" x2="100%" y2="0%">
        <stop offset="0%" style="stop-color:rgba(255, 255, 230, 1); stop-opacity:1" /> <!-- 接近白色的淡黄色起始 -->
        <stop offset="50%" style="stop-color:rgba(255, 233, 160, 1); stop-opacity:1" /> <!-- 中间过渡色 -->
        <stop offset="100%" style="stop-color:#FFD766; stop-opacity:1" /> <!-- 深黄色终止 -->
      </linearGradient>
    </defs>
    <!-- 使用渐变填充路径 -->
    <path d="M934.7 117.7c-21-17.4-49.3-21.1-74-9.7L126.2 447.9C91.5 464 69.6 497.8 69 536.1c-0.6 38.3 20.3 72.8 54.5 89.9l214.9 107.6c-2.2 11.6-3.3 23.5-3.3 35.5v100.3c0 21.2 17.1 38.3 38.2 38.3s38.2-17.2 38.2-38.3v-99.2L660.6 895c13.9 7 28.9 10.4 43.9 10.4 14.1 0 28.1-3 41.3-9.2 27.3-12.7 47.1-36.7 54.3-66l158-641.5c6.5-26.4-2.5-53.6-23.4-71z m-68 140.5l-425 414.3c-7.4 7.2-17 10.8-26.6 10.8-10 0-19.9-3.9-27.4-11.6-14.7-15.2-14.4-39.5 0.8-54.2l425-414.3c15.1-14.7 39.3-14.4 54 0.8 14.7 15.2 14.3 39.4-0.8 54.2z" fill="url(#grad1)" p-id="6365"></path>
  </svg>