<?xml version="1.0" standalone="no"?><!DOCTYPE svg PUBLIC "-//W3C//DTD SVG 1.1//EN" "http://www.w3.org/Graphics/SVG/1.1/DTD/svg11.dtd"><svg t="1727317218870" class="icon" viewBox="0 0 1027 1024" version="1.1" xmlns="http://www.w3.org/2000/svg" p-id="3425" xmlns:xlink="http://www.w3.org/1999/xlink" width="200.5859375" height="200"><path d="M142.848 864.256L92.16 952.32c-6.656 7.68-10.752 17.92-10.752 28.16 0 24.064 19.456 43.52 44.032 43.52 8.192 0 27.648-2.048 28.16-1.536h366.592l-0.512-0.512c280.576-2.048 506.88-230.4 506.88-510.976 0-282.112-228.864-510.976-510.976-510.976h-4.096C229.376 0 0.512 228.864 0.512 510.976c0 137.216 54.272 261.632 142.336 353.28z m343.04-174.08H256v-102.4h229.888v102.4zM256 314.368h511.488v102.4H256v-102.4z" fill="#fac56a" p-id="3426"></path></svg>