<?xml version="1.0" standalone="no"?><!DOCTYPE svg PUBLIC "-//W3C//DTD SVG 1.1//EN" "http://www.w3.org/Graphics/SVG/1.1/DTD/svg11.dtd"><svg t="1747272594673" class="icon" viewBox="0 0 1024 1024" version="1.1" xmlns="http://www.w3.org/2000/svg" p-id="25213" xmlns:xlink="http://www.w3.org/1999/xlink" width="800" height="800"><path d="M170 168h692v720h-692z" fill="#D86762" p-id="25214"></path><path d="M186 240h660v40h-660zM186 384h660v40h-660zM186 528h660v40h-660zM186 672h660v40h-660zM186 816h660v40h-660z" fill="#C24F4C" p-id="25215"></path><path d="M474 584h76v312h-76z" fill="#FFA747" p-id="25216"></path><path d="M202 159A23.008 23.008 0 0 0 179 136h-46a23.008 23.008 0 0 0-23 23V888h92V159z" fill="#FFB749" p-id="25217"></path><path d="M110 294.4l92-63.192v203.892l-92 63.192V294.4z m0 324l92-63.192v203.892l-92 63.192V618.4z" fill="#FFD16E" p-id="25218"></path><path d="M918 159a23.008 23.008 0 0 0-23-23h-46a23.008 23.008 0 0 0-23 23V888h92V159z" fill="#FFB749" p-id="25219"></path><path d="M826 294.4l92-63.192v203.892l-92 63.192V294.4z m0 324l92-63.192v203.892l-92 63.192V618.4z" fill="#FFD16E" p-id="25220"></path><path d="M942 483a31.016 31.016 0 0 0-31-31H113a31.016 31.016 0 0 0-31 31v62a31.016 31.016 0 0 0 31 31h798a31.016 31.016 0 0 0 31-31v-62z" fill="#FFBB48" p-id="25221"></path><path d="M346 436h324v172h-324z" fill="#FFA747" p-id="25222"></path><path d="M638 452h-256v128c0 70.692 57.308 128 128 128 70.692 0 128-57.308 128-128v-128z" fill="#FFBB48" p-id="25223"></path><path d="M534.348 580.216l15.86 49.652a13.896 13.896 0 0 1-13.24 18.132h-53.936a13.9 13.9 0 0 1-13.24-18.132l15.86-49.652A41.96 41.96 0 0 1 468 546c0-23.18 18.82-42 42-42s42 18.82 42 42a41.96 41.96 0 0 1-17.652 34.216z" fill="#AB5E5C" p-id="25224"></path></svg>